#!OML:ASF F:\Work\Patient Classification 1\justin\Session 1\justin.ASF
:FULLY-SPECIFIED
:DEGREES
4082
root -0.08627 17.4405 4.32881 10.8266 52.0864 12.0264
lowerback 19.379 2.15021 5.98437
upperback 0.344785 4.13639 -0.730998
thorax -10.0243 1.6631 -5.34195
lowerneck -0.330576 -16.4319 -22.2312
upperneck -4.98636 -22.0113 21.7966
head 3.58266 -10.8796 8.5533
rclavicle -1.74931e-014 1.59028e-014
rhumerus 71.6173 -17.3496 -29.1599
rradius 28.9217
rwrist -11.3657
rhand -15.2271 24.2502
rfingers 7.12502
rthumb 10.9458 -5.4445
lclavicle -1.74931e-014 1.59028e-014
lhumerus -8.24142 -16.774 87.0753
lradius 144.035
lwrist 11.8476
lhand -14.4872 5.98484
lfingers 7.12502
lthumb 11.6593 35.6404
rfemur -29.2076 -8.60079 4.79229
rtibia 48.4321
rfoot -11.1167 -9.6211
rtoes -20.6081
lfemur -4.37376 -0.330369 -2.32975
ltibia 40.6394
lfoot 10.827 -9.38653
ltoes -30.7697
4083
root -0.123529 17.4028 4.34703 11.1913 52.2 12.2782
lowerback 19.4284 2.34639 6.08189
upperback 0.30295 4.40805 -0.858414
thorax -10.0457 1.78125 -5.61342
lowerneck -0.229709 -16.6442 -21.7111
upperneck -5.52737 -22.2481 21.8019
head 3.40122 -11.0108 8.47241
rclavicle -1.28216e-013 6.36111e-015
rhumerus 72.8223 -14.0788 -27.9706
rradius 30.6156
rwrist -10.7025
rhand -14.0529 24.719
rfingers 7.12502
rthumb 12.0781 -4.91245
lclavicle -1.28216e-013 6.36111e-015
lhumerus -8.26104 -18.1639 88.1026
lradius 144.069
lwrist 11.5057
lhand -14.037 5.83642
lfingers 7.12502
lthumb 12.0935 35.4669
rfemur -29.7295 -8.96425 4.75763
rtibia 49.0695
rfoot -11.4874 -9.28154
rtoes -20.0853
lfemur -4.71315 -0.411558 -2.17374
ltibia 40.8053
lfoot 10.7693 -10.1977
ltoes -31.0752
4084
root -0.161897 17.3643 4.37156 11.1763 52.4929 12.2459
lowerback 19.62 2.40193 6.20474
upperback 0.248398 4.51836 -0.907769
thorax -10.1859 1.81678 -5.7836
lowerneck -0.33417 -16.7549 -21.1856
upperneck -5.77317 -22.342 21.7923
head 3.30665 -11.0592 8.38582
rclavicle 4.25399e-014 3.18055e-014
rhumerus 73.8671 -10.7458 -26.8517
rradius 32.7194
rwrist -10.2874
rhand -12.8217 25.4269
rfingers 7.12502
rthumb 13.2651 -4.13097
lclavicle 4.25399e-014 3.18055e-014
lhumerus -8.61786 -19.302 88.9548
lradius 144.197
lwrist 11.2382
lhand -13.7667 5.48252
lfingers 7.12502
lthumb 12.3541 35.0975
rfemur -29.9951 -9.35511 4.9571
rtibia 49.6531
rfoot -11.8379 -9.05996
rtoes -20.7061
lfemur -4.90078 -0.494919 -1.7213
ltibia 40.9198
lfoot 10.7854 -10.9324
ltoes -30.8917
4085
root -0.205216 17.3288 4.40579 10.9786 52.8553 12.0896
lowerback 19.7488 2.32433 5.91742
upperback 0.283551 4.38557 -0.655843
thorax -10.2789 1.77148 -5.31538
lowerneck -0.536205 -16.6799 -21.0972
upperneck -5.98842 -22.175 21.9453
head 3.25617 -10.9686 8.44007
rclavicle 4.92986e-014 4.13472e-014
rhumerus 75.312 -7.29129 -25.556
rradius 35.18
rwrist -9.90196
rhand -11.6511 26.2678
rfingers 7.12502
rthumb 14.3932 -3.21313
lclavicle 4.92986e-014 4.13472e-014
lhumerus -8.93711 -19.6936 90.0073
lradius 144.349
lwrist 10.8701
lhand -15.0743 4.26667
lfingers 7.12502
lthumb 11.0931 33.9535
rfemur -30.1234 -9.54666 5.29225
rtibia 50.1822
rfoot -12.2014 -9.1419
rtoes -22.2789
lfemur -5.04879 -0.449739 -1.13297
ltibia 41.0067
lfoot 10.5204 -11.6684
ltoes -31.5174
4086
root -0.242494 17.2964 4.42819 10.7876 53.3561 11.8578
lowerback 19.786 3.01575 6.28352
upperback 0.0369977 5.34348 -1.10602
thorax -10.375 2.18082 -6.28636
lowerneck 1.50051 -17.1073 -18.9059
upperneck -7.44917 -22.8715 22.1047
head 2.42548 -11.4892 8.34261
rclavicle -5.88403e-014 5.24792e-014
rhumerus 73.7133 -4.84556 -24.0326
rradius 37.5783
rwrist -8.95943
rhand -10.8792 27.3039
rfingers 7.12502
rthumb 15.1368 -2.12252
lclavicle -5.88403e-014 5.24792e-014
lhumerus -9.41967 -22.7076 90.7505
lradius 144.473
lwrist 11.0713
lhand -15.9526 3.60798
lfingers 7.12502
lthumb 10.2459 33.3384
rfemur -30.2698 -9.94393 5.65266
rtibia 50.6554
rfoot -12.5913 -9.21042
rtoes -23.1679
lfemur -5.31592 -0.510256 -0.536077
ltibia 41.0904
lfoot 10.3722 -11.9283
ltoes -31.6601
4087
root -0.275157 17.262 4.43838 10.8065 53.857 11.8516
lowerback 19.8528 2.43671 6.13111
upperback 0.451465 4.57359 -0.775975
thorax -10.0975 1.86125 -5.61807
lowerneck -0.844886 -17.1337 -19.6586
upperneck -6.5793 -22.6632 22.4333
head 3.14537 -11.2222 8.3063
rclavicle 3.39922e-014 7.95139e-015
rhumerus 76.1094 -1.85597 -23.3376
rradius 40.4421
rwrist -7.76673
rhand -10.636 28.8533
rfingers 7.12502
rthumb 15.3712 -0.555368
lclavicle 3.39922e-014 7.95139e-015
lhumerus -9.00177 -21.7496 90.8949
lradius 144.62
lwrist 10.5911
lhand -15.7299 3.69261
lfingers 7.12502
lthumb 10.4607 33.4124
rfemur -30.4479 -10.4324 5.81651
rtibia 51.0781
rfoot -12.9451 -9.21463
rtoes -23.3416
lfemur -5.58626 -0.832537 -0.189364
ltibia 41.1921
lfoot 10.3555 -11.7791
ltoes -30.9569
4088
root -0.310229 17.2271 4.44359 10.9729 54.2823 12.0999
lowerback 20.0669 2.16575 5.95567
upperback 0.615917 4.19073 -0.745436
thorax -10.0982 1.69435 -5.39237
lowerneck -1.91567 -17.2345 -19.7796
upperneck -6.20665 -22.6804 22.708
head 3.48328 -11.1564 8.28553
rclavicle 5.40694e-014 -2.54444e-014
rhumerus 76.9903 0.947764 -22.5447
rradius 43.536
rwrist -6.40412
rhand -10.6891 29.9531
rfingers 7.12502
rthumb 15.3199 0.540547
lclavicle 5.40694e-014 -2.54444e-014
lhumerus -8.94063 -22.0263 91.4587
lradius 144.536
lwrist 10.0674
lhand -16.0673 3.50412
lfingers 7.12502
lthumb 10.1352 33.24
rfemur -30.5986 -10.7615 5.80481
rtibia 51.4647
rfoot -13.2146 -9.30375
rtoes -23.1078
lfemur -5.76181 -1.35174 -0.129495
ltibia 41.2988
lfoot 10.0486 -11.605
ltoes -30.6339
4089
root -0.343063 17.1967 4.44945 10.8665 54.7381 12.0604
lowerback 20.2212 2.08905 5.92005
upperback 0.65497 4.09022 -0.757441
thorax -10.1548 1.64665 -5.36792
lowerneck -1.94517 -17.3445 -19.4642
upperneck -6.38502 -22.8084 22.8832
head 3.4526 -11.2255 8.27645
rclavicle -9.54166e-014 3.65764e-014
rhumerus 77.4219 3.71496 -21.9695
rradius 46.4196
rwrist -5.28112
rhand -10.3014 30.0249
rfingers 7.12502
rthumb 15.6934 0.641308
lclavicle -9.54166e-014 3.65764e-014
lhumerus -9.11316 -22.7969 92.0577
lradius 144.448
lwrist 9.60748
lhand -16.5306 3.03717
lfingers 7.12502
lthumb 9.68824 32.7944
rfemur -30.6538 -11.0197 5.97063
rtibia 51.8004
rfoot -13.5093 -9.39076
rtoes -22.4304
lfemur -5.9089 -1.60675 0.116765
ltibia 41.3668
lfoot 9.67924 -11.6037
ltoes -30.879
4090
root -0.373293 17.1717 4.46722 10.6266 55.173 11.8834
lowerback 20.1862 2.17981 5.81853
upperback 0.651264 4.17754 -0.825406
thorax -10.1298 1.69252 -5.40651
lowerneck -1.29922 -17.3861 -18.7732
upperneck -6.83284 -22.9081 23.0036
head 3.17936 -11.3365 8.28335
rclavicle -5.4467e-014 1.59028e-015
rhumerus 77.2701 6.40438 -21.7158
rradius 49.248
rwrist -4.57971
rhand -9.3469 30.1136
rfingers 7.12502
rthumb 16.6125 0.80455
lclavicle -5.4467e-014 1.59028e-015
lhumerus -9.52361 -23.4994 92.0484
lradius 144.613
lwrist 9.77378
lhand -16.3378 2.85325
lfingers 7.12502
lthumb 9.87429 32.6017
rfemur -30.6216 -11.1391 6.21566
rtibia 52.0853
rfoot -13.8093 -9.58763
rtoes -23.0776
lfemur -5.97606 -1.57171 0.48976
ltibia 41.3795
lfoot 9.56 -11.5005
ltoes -30.5926
4091
root -0.402799 17.1482 4.48572 10.6487 55.6002 12.0132
lowerback 20.0881 2.35453 5.49199
upperback 0.618331 4.31182 -0.97736
thorax -10.1058 1.76855 -5.41931
lowerneck -0.506165 -17.537 -17.8324
upperneck -7.21294 -23.168 22.9301
head 2.87296 -11.5395 8.19064
rclavicle 6.91771e-014 -4.77083e-015
rhumerus 76.5584 9.12929 -22.1278
rradius 51.8847
rwrist -3.8679
rhand -8.28461 30.4284
rfingers 7.12502
rthumb 17.635 1.20813
lclavicle 6.91771e-014 -4.77083e-015
lhumerus -9.60739 -24.9876 92.6007
lradius 143.974
lwrist 9.23805
lhand -15.4277 3.23842
lfingers 7.12502
lthumb 10.7523 32.9432
rfemur -30.5503 -11.2357 6.26652
rtibia 52.3258
rfoot -14.1018 -9.93817
rtoes -24.7536
lfemur -5.96794 -1.62029 0.637159
ltibia 41.3353
lfoot 9.42884 -11.2289
ltoes -30.7837
4092
root -0.431778 17.1268 4.49365 10.6851 56.023 12.0972
lowerback 20.0614 2.59541 5.36071
upperback 0.537163 4.57818 -1.18374
thorax -10.1402 1.89196 -5.64578
lowerneck 0.374083 -17.7669 -17.7312
upperneck -7.44547 -23.5873 23.4523
head 2.81263 -11.8128 8.34627
rclavicle -4.57205e-015 -1.43125e-014
rhumerus 75.4174 11.7576 -22.9186
rradius 54.1175
rwrist -3.45754
rhand -7.85894 30.655
rfingers 7.12502
rthumb 18.0446 1.47202
lclavicle -4.57205e-015 -1.43125e-014
lhumerus -9.81926 -26.3543 92.7567
lradius 143.66
lwrist 9.21883
lhand -13.5261 4.46872
lfingers 7.12502
lthumb 12.586 34.0696
rfemur -30.5196 -11.36 6.33812
rtibia 52.5178
rfoot -14.4171 -10.2931
rtoes -25.7152
lfemur -6.0157 -1.59372 0.746108
ltibia 41.2387
lfoot 9.12568 -11.0837
ltoes -33.225
4093
root -0.460174 17.1151 4.49882 10.4661 56.376 11.8835
lowerback 20.0717 2.90914 5.37873
upperback 0.519398 4.98708 -1.28604
thorax -10.1017 2.08392 -5.87837
lowerneck 1.00556 -18.0783 -17.8594
upperneck -7.71113 -24.0831 24.023
head 2.83427 -12.1062 8.50608
rclavicle -1.07145e-013 3.49861e-014
rhumerus 73.9181 14.0692 -23.7402
rradius 56.116
rwrist -3.3513
rhand -8.08826 30.8768
rfingers 7.12502
rthumb 17.8239 1.67359
lclavicle -1.07145e-013 3.49861e-014
lhumerus -9.98703 -27.7093 92.8087
lradius 143.4
lwrist 9.44242
lhand -11.8412 5.46741
lfingers 7.12502
lthumb 14.21 34.9613
rfemur -30.4963 -11.3456 6.57541
rtibia 52.6376
rfoot -14.6744 -10.6707
rtoes -26.4125
lfemur -6.00786 -1.5526 0.957916
ltibia 41.1096
lfoot 8.92374 -10.6581
ltoes -35.1423
